<svg width="234" height="65" viewBox="0 0 234 65" fill="none" xmlns="http://www.w3.org/2000/svg">
<path d="M79.9461 32.5928C79.569 32.5928 79.2155 32.5143 78.8855 32.3571C78.5713 32.1843 78.4141 31.9329 78.4141 31.6029V16.3303C78.4141 16.0632 78.5241 15.8353 78.7441 15.6468C78.9641 15.4582 79.2469 15.364 79.5926 15.364H84.3064C85.312 15.364 86.2154 15.5368 87.0168 15.8825C87.8338 16.2282 88.4781 16.7938 88.9494 17.5794C89.4208 18.3494 89.6565 19.3785 89.6565 20.667V20.8084C89.6565 22.0968 89.413 23.1339 88.9259 23.9195C88.4388 24.7051 87.771 25.2786 86.9225 25.64C86.0897 25.9857 85.1548 26.1585 84.1178 26.1585H81.4781V31.6029C81.4781 31.9329 81.321 32.1843 81.0067 32.3571C80.6925 32.5143 80.3389 32.5928 79.9461 32.5928ZM81.4781 23.7545H84.1178C84.9034 23.7545 85.5084 23.5345 85.9326 23.0946C86.3726 22.6389 86.5925 21.9554 86.5925 21.0441V20.7848C86.5925 19.8578 86.3726 19.1743 85.9326 18.7343C85.5084 18.2787 84.9034 18.0508 84.1178 18.0508H81.4781V23.7545ZM93.0655 32.5928C92.6884 32.5928 92.3349 32.5143 92.0049 32.3571C91.6907 32.1843 91.5335 31.9329 91.5335 31.6029V16.3303C91.5335 15.9846 91.6907 15.7411 92.0049 15.5997C92.3349 15.4425 92.6884 15.364 93.0655 15.364C93.4583 15.364 93.8119 15.4425 94.1261 15.5997C94.4404 15.7411 94.5975 15.9846 94.5975 16.3303V22.4582H99.9005V16.3303C99.9005 15.9846 100.058 15.7411 100.372 15.5997C100.702 15.4425 101.055 15.364 101.432 15.364C101.825 15.364 102.179 15.4425 102.493 15.5997C102.807 15.7411 102.964 15.9846 102.964 16.3303V31.6029C102.964 31.9329 102.807 32.1843 102.493 32.3571C102.179 32.5143 101.825 32.5928 101.432 32.5928C101.055 32.5928 100.702 32.5143 100.372 32.3571C100.058 32.1843 99.9005 31.9329 99.9005 31.6029V24.8622H94.5975V31.6029C94.5975 31.9329 94.4404 32.1843 94.1261 32.3571C93.8119 32.5143 93.4583 32.5928 93.0655 32.5928ZM106.557 32.5928C106.275 32.5928 105.984 32.5378 105.685 32.4279C105.387 32.3179 105.135 32.1686 104.931 31.98C104.727 31.7915 104.625 31.5715 104.625 31.3201C104.625 31.273 104.633 31.1944 104.648 31.0844L109.197 16.2596C109.307 15.9139 109.551 15.6547 109.928 15.4818C110.321 15.309 110.737 15.2226 111.177 15.2226C111.633 15.2226 112.049 15.309 112.426 15.4818C112.803 15.6547 113.047 15.9139 113.157 16.2596L117.706 31.0844C117.737 31.1944 117.753 31.273 117.753 31.3201C117.753 31.5558 117.643 31.7758 117.423 31.98C117.218 32.1686 116.967 32.3179 116.668 32.4279C116.37 32.5378 116.079 32.5928 115.796 32.5928C115.545 32.5928 115.325 32.5536 115.136 32.475C114.964 32.3807 114.846 32.2157 114.783 31.98L113.887 28.8454H108.467L107.594 31.98C107.532 32.2157 107.406 32.3807 107.217 32.475C107.029 32.5536 106.809 32.5928 106.557 32.5928ZM109.126 26.4414H113.227L111.177 19.2057L109.126 26.4414ZM128.812 32.7107C128.607 32.7107 128.403 32.6478 128.199 32.5221C128.01 32.3964 127.861 32.2157 127.751 31.98L124.404 25.475H122.424V31.6029C122.424 31.9329 122.267 32.1843 121.953 32.3571C121.639 32.5143 121.285 32.5928 120.892 32.5928C120.515 32.5928 120.162 32.5143 119.832 32.3571C119.518 32.1843 119.36 31.9329 119.36 31.6029V16.3303C119.36 16.0632 119.447 15.8353 119.62 15.6468C119.808 15.4582 120.052 15.364 120.35 15.364H125.017C126.054 15.364 126.989 15.5132 127.822 15.8118C128.67 16.1103 129.346 16.621 129.849 17.3438C130.351 18.0508 130.603 19.0329 130.603 20.2899C130.603 21.2012 130.469 21.979 130.202 22.6232C129.935 23.2517 129.566 23.7624 129.094 24.1552C128.639 24.5323 128.112 24.8151 127.515 25.0036L130.626 30.7309C130.658 30.7937 130.681 30.8644 130.697 30.943C130.713 31.0059 130.721 31.0609 130.721 31.108C130.721 31.3594 130.626 31.6108 130.438 31.8622C130.249 32.1136 130.006 32.3179 129.707 32.475C129.424 32.6321 129.126 32.7107 128.812 32.7107ZM122.424 23.071H125.017C125.787 23.071 126.4 22.8824 126.855 22.5053C127.311 22.1282 127.539 21.484 127.539 20.5727C127.539 19.6299 127.311 18.9779 126.855 18.6165C126.4 18.2394 125.787 18.0508 125.017 18.0508H122.424V23.071ZM134.288 32.5928C133.911 32.5928 133.557 32.5143 133.227 32.3571C132.913 32.1843 132.756 31.9329 132.756 31.6029V16.8959C132.756 16.3303 132.913 15.9375 133.227 15.7175C133.557 15.4818 133.911 15.364 134.288 15.364C134.665 15.364 134.979 15.4033 135.231 15.4818C135.498 15.5604 135.741 15.7175 135.961 15.9532C136.197 16.1889 136.441 16.5346 136.692 16.9902L139.591 22.2697L142.466 16.9902C142.749 16.5346 142.993 16.1889 143.197 15.9532C143.417 15.7175 143.661 15.5604 143.928 15.4818C144.195 15.4033 144.509 15.364 144.871 15.364C145.263 15.364 145.617 15.4818 145.931 15.7175C146.245 15.9375 146.402 16.3303 146.402 16.8959V31.6029C146.402 31.9329 146.238 32.1843 145.908 32.3571C145.593 32.5143 145.248 32.5928 144.871 32.5928C144.493 32.5928 144.14 32.5143 143.81 32.3571C143.496 32.1843 143.339 31.9329 143.339 31.6029V21.4919L140.605 26.3942C140.463 26.6142 140.298 26.7792 140.11 26.8892C139.921 26.9834 139.732 27.0306 139.544 27.0306C139.371 27.0306 139.19 26.9834 139.002 26.8892C138.829 26.7949 138.672 26.6299 138.53 26.3942L135.82 21.3269V31.6029C135.82 31.9329 135.663 32.1843 135.349 32.3571C135.034 32.5143 134.681 32.5928 134.288 32.5928ZM149.967 32.5928C149.684 32.5928 149.393 32.5378 149.094 32.4279C148.796 32.3179 148.545 32.1686 148.34 31.98C148.136 31.7915 148.034 31.5715 148.034 31.3201C148.034 31.273 148.042 31.1944 148.057 31.0844L152.606 16.2596C152.716 15.9139 152.96 15.6547 153.337 15.4818C153.73 15.309 154.146 15.2226 154.586 15.2226C155.042 15.2226 155.458 15.309 155.835 15.4818C156.212 15.6547 156.456 15.9139 156.566 16.2596L161.115 31.0844C161.146 31.1944 161.162 31.273 161.162 31.3201C161.162 31.5558 161.052 31.7758 160.832 31.98C160.628 32.1686 160.376 32.3179 160.078 32.4279C159.779 32.5378 159.488 32.5928 159.206 32.5928C158.954 32.5928 158.734 32.5536 158.546 32.475C158.373 32.3807 158.255 32.2157 158.192 31.98L157.296 28.8454H151.876L151.004 31.98C150.941 32.2157 150.815 32.3807 150.626 32.475C150.438 32.5536 150.218 32.5928 149.967 32.5928ZM152.536 26.4414H156.637L154.586 19.2057L152.536 26.4414ZM168.025 32.7342C167.051 32.7342 166.148 32.5614 165.315 32.2157C164.482 31.8543 163.814 31.2808 163.312 30.4952C162.825 29.6939 162.581 28.6333 162.581 27.3134V20.7848C162.581 19.465 162.825 18.4122 163.312 17.6266C163.814 16.8252 164.482 16.2517 165.315 15.9061C166.148 15.5447 167.059 15.364 168.049 15.364C169.149 15.364 170.115 15.5525 170.948 15.9296C171.796 16.291 172.456 16.8017 172.928 17.4616C173.415 18.1215 173.658 18.915 173.658 19.8421C173.658 20.4549 173.533 20.8634 173.281 21.0676C173.03 21.2562 172.645 21.3505 172.126 21.3505C171.702 21.3505 171.341 21.2798 171.042 21.1384C170.759 20.9812 170.61 20.7298 170.594 20.3841C170.594 20.1956 170.563 19.9756 170.5 19.7242C170.453 19.4571 170.351 19.1978 170.194 18.9464C170.037 18.695 169.793 18.4829 169.463 18.3101C169.149 18.1372 168.709 18.0508 168.143 18.0508C167.342 18.0508 166.729 18.2787 166.305 18.7343C165.881 19.1743 165.669 19.8578 165.669 20.7848V27.3134C165.669 28.2562 165.881 28.9475 166.305 29.3875C166.745 29.8274 167.373 30.0474 168.19 30.0474C168.725 30.0474 169.149 29.961 169.463 29.7881C169.777 29.6153 170.005 29.4032 170.147 29.1518C170.304 28.8847 170.406 28.6097 170.453 28.3269C170.516 28.044 170.563 27.7769 170.594 27.5255C170.626 27.1484 170.783 26.897 171.066 26.7713C171.349 26.6299 171.694 26.5592 172.103 26.5592C172.637 26.5592 173.03 26.6613 173.281 26.8656C173.533 27.0699 173.658 27.4705 173.658 28.0676C173.658 29.0104 173.415 29.8353 172.928 30.5423C172.456 31.2494 171.796 31.7915 170.948 32.1686C170.1 32.5457 169.125 32.7342 168.025 32.7342ZM180.985 32.5928C180.608 32.5928 180.255 32.5143 179.925 32.3571C179.611 32.1843 179.453 31.9329 179.453 31.6029V25.6871C179.453 25.5614 179.43 25.4593 179.383 25.3808L174.504 16.9431C174.473 16.8802 174.449 16.8252 174.433 16.7781C174.433 16.7153 174.433 16.6681 174.433 16.6367C174.433 16.3853 174.543 16.1653 174.763 15.9768C174.983 15.7882 175.25 15.6389 175.565 15.529C175.879 15.419 176.177 15.364 176.46 15.364C176.712 15.364 176.9 15.419 177.026 15.529C177.152 15.6232 177.269 15.7725 177.379 15.9768L180.985 22.7882L184.568 15.9768C184.694 15.7725 184.819 15.6232 184.945 15.529C185.071 15.419 185.259 15.364 185.511 15.364C185.793 15.364 186.084 15.419 186.383 15.529C186.697 15.6389 186.964 15.7882 187.184 15.9768C187.42 16.1653 187.538 16.3853 187.538 16.6367C187.538 16.6681 187.53 16.7153 187.514 16.7781C187.514 16.8252 187.498 16.8802 187.467 16.9431L182.588 25.3808C182.541 25.4593 182.517 25.5614 182.517 25.6871V31.6029C182.517 31.9329 182.352 32.1843 182.022 32.3571C181.708 32.5143 181.363 32.5928 180.985 32.5928ZM195.397 32.5928C195.02 32.5928 194.666 32.5143 194.336 32.3571C194.022 32.1843 193.865 31.9329 193.865 31.6029V16.3303C193.865 15.9846 194.022 15.7411 194.336 15.5997C194.666 15.4425 195.02 15.364 195.397 15.364C195.79 15.364 196.143 15.4425 196.457 15.5997C196.772 15.7411 196.929 15.9846 196.929 16.3303V22.4582H202.232V16.3303C202.232 15.9846 202.389 15.7411 202.703 15.5997C203.033 15.4425 203.387 15.364 203.764 15.364C204.157 15.364 204.51 15.4425 204.824 15.5997C205.139 15.7411 205.296 15.9846 205.296 16.3303V31.6029C205.296 31.9329 205.139 32.1843 204.824 32.3571C204.51 32.5143 204.157 32.5928 203.764 32.5928C203.387 32.5928 203.033 32.5143 202.703 32.3571C202.389 32.1843 202.232 31.9329 202.232 31.6029V24.8622H196.929V31.6029C196.929 31.9329 196.772 32.1843 196.457 32.3571C196.143 32.5143 195.79 32.5928 195.397 32.5928ZM213.744 32.7342C212.676 32.7342 211.717 32.5614 210.869 32.2157C210.02 31.8543 209.344 31.2808 208.842 30.4952C208.339 29.6939 208.087 28.6333 208.087 27.3134V16.3303C208.087 15.9846 208.245 15.7411 208.559 15.5997C208.873 15.4425 209.227 15.364 209.619 15.364C209.997 15.364 210.342 15.4425 210.656 15.5997C210.986 15.7411 211.151 15.9846 211.151 16.3303V27.3134C211.151 28.2404 211.379 28.9318 211.835 29.3875C212.291 29.8274 212.927 30.0474 213.744 30.0474C214.545 30.0474 215.174 29.8274 215.629 29.3875C216.101 28.9318 216.337 28.2404 216.337 27.3134V16.3303C216.337 15.9846 216.486 15.7411 216.784 15.5997C217.099 15.4425 217.46 15.364 217.869 15.364C218.246 15.364 218.591 15.4425 218.906 15.5997C219.236 15.7411 219.401 15.9846 219.401 16.3303V27.3134C219.401 28.6333 219.149 29.6939 218.646 30.4952C218.143 31.2808 217.46 31.8543 216.596 32.2157C215.747 32.5614 214.797 32.7342 213.744 32.7342ZM223.496 32.5928C223.087 32.5928 222.757 32.4986 222.506 32.31C222.27 32.1215 222.152 31.8936 222.152 31.6265V16.3539C222.152 16.0239 222.294 15.7804 222.576 15.6232C222.859 15.4504 223.166 15.364 223.496 15.364H228.068C228.869 15.364 229.631 15.4818 230.354 15.7175C231.077 15.9375 231.666 16.346 232.122 16.9431C232.577 17.5402 232.805 18.3965 232.805 19.5121C232.805 20.4706 232.625 21.2719 232.263 21.9161C231.902 22.5446 231.415 22.9924 230.802 23.2596C231.289 23.4324 231.713 23.6759 232.075 23.9902C232.436 24.2887 232.719 24.6894 232.923 25.1922C233.127 25.6793 233.23 26.3157 233.23 27.1013V27.5962C233.23 28.8218 233.017 29.8038 232.593 30.5423C232.185 31.2651 231.619 31.7915 230.896 32.1215C230.189 32.4357 229.396 32.5928 228.516 32.5928H223.496ZM225.216 29.906H227.856C228.579 29.906 229.144 29.7017 229.553 29.2932C229.961 28.8847 230.166 28.2326 230.166 27.337V26.9599C230.166 26.0328 229.961 25.3886 229.553 25.0272C229.144 24.6501 228.579 24.4616 227.856 24.4616H225.216V29.906ZM225.216 22.0575H227.856C228.5 22.0575 228.971 21.869 229.27 21.4919C229.584 21.1148 229.741 20.6277 229.741 20.0306C229.741 19.6064 229.663 19.2528 229.506 18.97C229.349 18.6715 229.129 18.4436 228.846 18.2865C228.563 18.1294 228.225 18.0508 227.832 18.0508H225.216V22.0575Z" fill="#F7F7F7" style="fill:#F7F7F7;fill:color(display-p3 0.9686 0.9686 0.9686);fill-opacity:1;"/>
<path d="M80.5555 52.3856C80.4478 52.3856 80.3445 52.3587 80.2458 52.3048C80.156 52.242 80.1111 52.1522 80.1111 52.0355V48.6146C80.1111 48.5697 80.1021 48.5338 80.0842 48.5069L77.2963 43.1601C77.2783 43.1152 77.2604 43.0748 77.2424 43.0389C77.2334 42.994 77.229 42.9536 77.229 42.9177C77.229 42.8458 77.2559 42.783 77.3098 42.7291C77.3636 42.6663 77.4265 42.6214 77.4983 42.5944C77.5791 42.5585 77.6554 42.5406 77.7273 42.5406C77.7991 42.5406 77.8619 42.563 77.9158 42.6079C77.9787 42.6528 78.0325 42.7201 78.0774 42.8099L80.5555 47.7257L83.0471 42.8099C83.101 42.7201 83.1548 42.6528 83.2087 42.6079C83.2626 42.563 83.3254 42.5406 83.3973 42.5406C83.4781 42.5406 83.5544 42.5585 83.6262 42.5944C83.6981 42.6214 83.7564 42.6663 83.8013 42.7291C83.8552 42.783 83.8821 42.8458 83.8821 42.9177C83.8821 42.9536 83.8776 42.994 83.8687 43.0389C83.8597 43.0748 83.8462 43.1152 83.8282 43.1601L81.0269 48.5069C81.009 48.5338 81 48.5697 81 48.6146V52.0355C81 52.1522 80.9551 52.242 80.8653 52.3048C80.7755 52.3587 80.6723 52.3856 80.5555 52.3856ZM85.978 52.4799C85.5201 52.4799 85.0981 52.3632 84.712 52.1297C84.3259 51.8873 84.0116 51.5731 83.7692 51.187C83.5358 50.7919 83.4191 50.3699 83.4191 49.921V48.4665C83.4191 48.0086 83.5313 47.591 83.7558 47.2139C83.9892 46.8279 84.299 46.5181 84.685 46.2847C85.0801 46.0512 85.5111 45.9345 85.978 45.9345C86.4359 45.9345 86.8579 46.0512 87.2439 46.2847C87.639 46.5091 87.9533 46.8099 88.1867 47.187C88.4201 47.5641 88.5369 47.9906 88.5369 48.4665V49.921C88.5369 50.361 88.4201 50.7785 88.1867 51.1735C87.9533 51.5686 87.639 51.8873 87.2439 52.1297C86.8579 52.3632 86.4359 52.4799 85.978 52.4799ZM85.978 51.6718C86.2922 51.6718 86.575 51.591 86.8264 51.4294C87.0778 51.2588 87.2799 51.0388 87.4325 50.7695C87.5851 50.5001 87.6615 50.2173 87.6615 49.921V48.4665C87.6615 48.1702 87.5851 47.8918 87.4325 47.6315C87.2888 47.3711 87.0868 47.1601 86.8264 46.9985C86.575 46.8279 86.2922 46.7426 85.978 46.7426C85.6637 46.7426 85.3809 46.8279 85.1295 46.9985C84.8781 47.1601 84.6761 47.3711 84.5234 47.6315C84.3708 47.8918 84.2945 48.1702 84.2945 48.4665V49.921C84.2945 50.2173 84.3708 50.5001 84.5234 50.7695C84.6761 51.0388 84.8781 51.2588 85.1295 51.4294C85.3899 51.591 85.6727 51.6718 85.978 51.6718ZM92.4931 52.4799C92.0172 52.4799 91.5817 52.3632 91.1867 52.1297C90.8006 51.8963 90.4908 51.5865 90.2574 51.2005C90.0329 50.8054 89.9207 50.3879 89.9207 49.9479V46.3655C89.9207 46.2757 89.9656 46.1949 90.0554 46.123C90.1452 46.0512 90.2484 46.0153 90.3651 46.0153C90.4819 46.0153 90.5806 46.0512 90.6614 46.123C90.7512 46.1949 90.7961 46.2757 90.7961 46.3655V49.9479C90.7961 50.2442 90.8724 50.5226 91.0251 50.783C91.1777 51.0433 91.3797 51.2588 91.6311 51.4294C91.8825 51.591 92.1654 51.6718 92.4796 51.6718C92.8028 51.6718 93.0902 51.591 93.3416 51.4294C93.593 51.2678 93.7905 51.0568 93.9341 50.7964C94.0868 50.5271 94.1631 50.2442 94.1631 49.9479V46.352C94.1631 46.2532 94.208 46.1724 94.2978 46.1096C94.3876 46.0467 94.4908 46.0153 94.6075 46.0153C94.7422 46.0153 94.8455 46.0467 94.9173 46.1096C94.9981 46.1724 95.0385 46.2532 95.0385 46.352V49.9479C95.0385 50.4058 94.9218 50.8278 94.6884 51.2139C94.4639 51.591 94.1541 51.8963 93.7591 52.1297C93.373 52.3632 92.951 52.4799 92.4931 52.4799ZM97.0869 52.3856C96.9702 52.3856 96.8669 52.3497 96.7771 52.2779C96.6963 52.2061 96.6559 52.1253 96.6559 52.0355V46.352C96.6559 46.2443 96.6963 46.1634 96.7771 46.1096C96.8669 46.0467 96.9702 46.0153 97.0869 46.0153C97.2036 46.0153 97.3024 46.0467 97.3832 46.1096C97.464 46.1634 97.5044 46.2443 97.5044 46.352V47.0119C97.6032 46.8234 97.7379 46.6483 97.9085 46.4867C98.079 46.3251 98.2811 46.1949 98.5145 46.0961C98.748 45.9884 99.0128 45.9345 99.3091 45.9345H99.7805C99.8793 45.9345 99.9601 45.9749 100.023 46.0557C100.095 46.1365 100.131 46.2308 100.131 46.3385C100.131 46.4553 100.095 46.554 100.023 46.6348C99.9601 46.7067 99.8793 46.7426 99.7805 46.7426H99.3091C99.0128 46.7426 98.7255 46.8234 98.4472 46.985C98.1778 47.1466 97.9578 47.3711 97.7872 47.6584C97.6166 47.9457 97.5313 48.2959 97.5313 48.7089V52.0355C97.5313 52.1253 97.4865 52.2061 97.3967 52.2779C97.3159 52.3497 97.2126 52.3856 97.0869 52.3856ZM104.229 52.3856C104.112 52.3856 104.009 52.3497 103.919 52.2779C103.838 52.2061 103.798 52.1253 103.798 52.0355V46.352C103.798 46.2443 103.838 46.1634 103.919 46.1096C104.009 46.0467 104.112 46.0153 104.229 46.0153C104.345 46.0153 104.444 46.0467 104.525 46.1096C104.606 46.1634 104.646 46.2443 104.646 46.352V46.9581C104.799 46.6977 105.023 46.4642 105.32 46.2577C105.625 46.0422 105.997 45.9345 106.437 45.9345C106.886 45.9345 107.277 46.0602 107.609 46.3116C107.941 46.563 108.188 46.8862 108.35 47.2813C108.583 46.8234 108.884 46.4867 109.252 46.2712C109.629 46.0467 110.011 45.9345 110.397 45.9345C110.783 45.9345 111.147 46.0333 111.488 46.2308C111.838 46.4283 112.121 46.7156 112.336 47.0927C112.552 47.4609 112.66 47.9188 112.66 48.4665V52.0355C112.66 52.1253 112.615 52.2061 112.525 52.2779C112.444 52.3497 112.341 52.3856 112.215 52.3856C112.098 52.3856 111.995 52.3497 111.905 52.2779C111.825 52.2061 111.784 52.1253 111.784 52.0355V48.4665C111.784 48.0804 111.708 47.7616 111.555 47.5102C111.403 47.2588 111.205 47.0703 110.963 46.9446C110.729 46.8099 110.491 46.7426 110.249 46.7426C109.988 46.7426 109.737 46.8099 109.495 46.9446C109.261 47.0793 109.064 47.2723 108.902 47.5237C108.749 47.7661 108.673 48.0579 108.673 48.3991V52.0489C108.673 52.1657 108.624 52.251 108.525 52.3048C108.435 52.3587 108.336 52.3856 108.229 52.3856C108.13 52.3856 108.031 52.3587 107.932 52.3048C107.842 52.251 107.798 52.1657 107.798 52.0489V48.4126C107.798 48.0894 107.726 47.802 107.582 47.5506C107.438 47.2992 107.25 47.1017 107.016 46.9581C106.792 46.8144 106.541 46.7426 106.262 46.7426C106.002 46.7426 105.75 46.8099 105.508 46.9446C105.266 47.0793 105.064 47.2768 104.902 47.5372C104.749 47.7886 104.673 48.0983 104.673 48.4665V52.0355C104.673 52.1253 104.628 52.2061 104.538 52.2779C104.458 52.3497 104.354 52.3856 104.229 52.3856ZM116.96 52.4799C116.394 52.4799 115.891 52.3722 115.451 52.1567C115.02 51.9412 114.679 51.6449 114.428 51.2678C114.185 50.8817 114.064 50.4328 114.064 49.921V48.4261C114.064 47.9771 114.181 47.5641 114.414 47.187C114.648 46.8009 114.958 46.4957 115.344 46.2712C115.739 46.0467 116.17 45.9345 116.637 45.9345C117.085 45.9345 117.499 46.0422 117.876 46.2577C118.262 46.4642 118.571 46.7515 118.805 47.1197C119.038 47.4878 119.155 47.9143 119.155 48.3991C119.155 48.7403 119.097 48.9872 118.98 49.1399C118.863 49.2925 118.715 49.3868 118.536 49.4227C118.365 49.4496 118.181 49.4631 117.983 49.4631H114.94V49.9614C114.94 50.5001 115.133 50.9266 115.519 51.2409C115.905 51.5551 116.394 51.7122 116.987 51.7122C117.346 51.7122 117.624 51.6673 117.822 51.5776C118.019 51.4878 118.172 51.398 118.28 51.3082C118.396 51.2184 118.504 51.1735 118.603 51.1735C118.675 51.1735 118.738 51.2005 118.791 51.2543C118.854 51.2992 118.899 51.3531 118.926 51.4159C118.962 51.4788 118.98 51.5372 118.98 51.591C118.98 51.6898 118.899 51.811 118.738 51.9547C118.576 52.0983 118.343 52.224 118.037 52.3318C117.732 52.4305 117.373 52.4799 116.96 52.4799ZM114.94 48.8166H117.633C117.903 48.8166 118.082 48.7897 118.172 48.7358C118.262 48.673 118.307 48.5473 118.307 48.3587C118.307 48.0714 118.235 47.802 118.091 47.5506C117.947 47.2903 117.75 47.0793 117.499 46.9177C117.247 46.7471 116.955 46.6618 116.623 46.6618C116.318 46.6618 116.035 46.7381 115.775 46.8907C115.523 47.0434 115.321 47.2409 115.169 47.4833C115.016 47.7257 114.94 47.9996 114.94 48.3048V48.8166ZM122.603 52.4799C122.19 52.4799 121.799 52.3632 121.431 52.1297C121.063 51.8873 120.767 51.5686 120.542 51.1735C120.327 50.7785 120.219 50.361 120.219 49.921V48.4665C120.219 47.9996 120.327 47.5776 120.542 47.2005C120.767 46.8144 121.063 46.5091 121.431 46.2847C121.799 46.0512 122.203 45.9345 122.643 45.9345C123.083 45.9345 123.451 46.0422 123.748 46.2577C124.053 46.4642 124.277 46.6977 124.421 46.9581V42.4463C124.421 42.3386 124.466 42.2577 124.556 42.2039C124.646 42.141 124.749 42.1096 124.866 42.1096C125 42.1096 125.104 42.141 125.175 42.2039C125.256 42.2577 125.297 42.3386 125.297 42.4463V52.0355C125.297 52.1253 125.256 52.2061 125.175 52.2779C125.104 52.3497 125 52.3856 124.866 52.3856C124.758 52.3856 124.659 52.3497 124.569 52.2779C124.488 52.2061 124.448 52.1253 124.448 52.0355V51.4429C124.313 51.7212 124.075 51.9636 123.734 52.1701C123.402 52.3767 123.025 52.4799 122.603 52.4799ZM122.765 51.6718C123.088 51.6718 123.371 51.591 123.613 51.4294C123.864 51.2588 124.062 51.0703 124.206 50.8638C124.349 50.6483 124.421 50.4732 124.421 50.3385V48.4665C124.421 48.0983 124.34 47.7886 124.179 47.5372C124.017 47.2858 123.811 47.0927 123.559 46.9581C123.308 46.8144 123.047 46.7426 122.778 46.7426C122.473 46.7426 122.194 46.8279 121.943 46.9985C121.692 47.1601 121.49 47.3711 121.337 47.6315C121.184 47.8918 121.108 48.1702 121.108 48.4665V49.921C121.108 50.2173 121.184 50.5001 121.337 50.7695C121.49 51.0388 121.692 51.2588 121.943 51.4294C122.194 51.591 122.468 51.6718 122.765 51.6718ZM127.43 44.1298C127.268 44.1298 127.124 44.0759 126.999 43.9682C126.882 43.8515 126.823 43.7168 126.823 43.5641C126.823 43.4115 126.882 43.2813 126.999 43.1736C127.124 43.0658 127.268 43.0119 127.43 43.0119C127.591 43.0119 127.73 43.0658 127.847 43.1736C127.964 43.2813 128.022 43.4115 128.022 43.5641C128.022 43.7168 127.964 43.8515 127.847 43.9682C127.73 44.0759 127.591 44.1298 127.43 44.1298ZM127.416 52.3856C127.299 52.3856 127.196 52.3497 127.106 52.2779C127.026 52.2061 126.985 52.1253 126.985 52.0355V46.352C126.985 46.2443 127.026 46.1634 127.106 46.1096C127.196 46.0467 127.299 46.0153 127.416 46.0153C127.542 46.0153 127.645 46.0467 127.726 46.1096C127.816 46.1634 127.861 46.2443 127.861 46.352V52.0355C127.861 52.1253 127.816 52.2061 127.726 52.2779C127.645 52.3497 127.542 52.3856 127.416 52.3856ZM131.934 52.4799C131.341 52.4799 130.852 52.3677 130.466 52.1432C130.08 51.9187 129.793 51.6135 129.604 51.2274C129.415 50.8413 129.321 50.4058 129.321 49.921V48.4934C129.321 48.0086 129.411 47.5731 129.591 47.187C129.779 46.8009 130.066 46.4957 130.452 46.2712C130.848 46.0467 131.341 45.9345 131.934 45.9345C132.311 45.9345 132.639 45.9839 132.917 46.0826C133.204 46.1724 133.424 46.2847 133.577 46.4193C133.739 46.554 133.819 46.6842 133.819 46.8099C133.819 46.8728 133.801 46.9401 133.766 47.0119C133.739 47.0748 133.694 47.1286 133.631 47.1735C133.577 47.2184 133.514 47.2409 133.442 47.2409C133.362 47.2409 133.267 47.2005 133.16 47.1197C133.061 47.0299 132.922 46.9446 132.742 46.8638C132.562 46.783 132.307 46.7426 131.974 46.7426C131.391 46.7426 130.946 46.8997 130.641 47.2139C130.345 47.5192 130.197 47.9457 130.197 48.4934V49.921C130.197 50.4687 130.345 50.8997 130.641 51.2139C130.946 51.5192 131.395 51.6718 131.988 51.6718C132.329 51.6718 132.594 51.6314 132.782 51.5506C132.971 51.4608 133.115 51.3755 133.213 51.2947C133.321 51.2049 133.42 51.1601 133.51 51.1601C133.59 51.1601 133.658 51.1825 133.712 51.2274C133.775 51.2723 133.819 51.3262 133.846 51.389C133.882 51.4519 133.9 51.5192 133.9 51.591C133.9 51.7077 133.819 51.8379 133.658 51.9816C133.496 52.1163 133.267 52.233 132.971 52.3318C132.684 52.4305 132.338 52.4799 131.934 52.4799ZM135.531 44.1298C135.37 44.1298 135.226 44.0759 135.1 43.9682C134.984 43.8515 134.925 43.7168 134.925 43.5641C134.925 43.4115 134.984 43.2813 135.1 43.1736C135.226 43.0658 135.37 43.0119 135.531 43.0119C135.693 43.0119 135.832 43.0658 135.949 43.1736C136.066 43.2813 136.124 43.4115 136.124 43.5641C136.124 43.7168 136.066 43.8515 135.949 43.9682C135.832 44.0759 135.693 44.1298 135.531 44.1298ZM135.518 52.3856C135.401 52.3856 135.298 52.3497 135.208 52.2779C135.127 52.2061 135.087 52.1253 135.087 52.0355V46.352C135.087 46.2443 135.127 46.1634 135.208 46.1096C135.298 46.0467 135.401 46.0153 135.518 46.0153C135.644 46.0153 135.747 46.0467 135.828 46.1096C135.917 46.1634 135.962 46.2443 135.962 46.352V52.0355C135.962 52.1253 135.917 52.2061 135.828 52.2779C135.747 52.3497 135.644 52.3856 135.518 52.3856ZM138.069 52.3856C137.953 52.3856 137.849 52.3497 137.76 52.2779C137.679 52.2061 137.638 52.1253 137.638 52.0355V46.352C137.638 46.2443 137.679 46.1634 137.76 46.1096C137.849 46.0467 137.953 46.0153 138.069 46.0153C138.186 46.0153 138.285 46.0467 138.366 46.1096C138.447 46.1634 138.487 46.2443 138.487 46.352V46.9581C138.631 46.6977 138.855 46.4642 139.16 46.2577C139.466 46.0422 139.843 45.9345 140.292 45.9345C140.723 45.9345 141.118 46.0512 141.477 46.2847C141.845 46.5091 142.137 46.8144 142.352 47.2005C142.568 47.5776 142.675 47.9996 142.675 48.4665V52.0355C142.675 52.1522 142.631 52.242 142.541 52.3048C142.451 52.3587 142.348 52.3856 142.231 52.3856C142.132 52.3856 142.033 52.3587 141.935 52.3048C141.845 52.242 141.8 52.1522 141.8 52.0355V48.4665C141.8 48.1702 141.724 47.8918 141.571 47.6315C141.418 47.3711 141.216 47.1601 140.965 46.9985C140.714 46.8279 140.435 46.7426 140.13 46.7426C139.861 46.7426 139.6 46.8144 139.349 46.9581C139.106 47.0927 138.904 47.2858 138.743 47.5372C138.59 47.7886 138.514 48.0983 138.514 48.4665V52.0355C138.514 52.1253 138.469 52.2061 138.379 52.2779C138.298 52.3497 138.195 52.3856 138.069 52.3856ZM146.96 52.4799C146.395 52.4799 145.892 52.3722 145.452 52.1567C145.021 51.9412 144.68 51.6449 144.428 51.2678C144.186 50.8817 144.065 50.4328 144.065 49.921V48.4261C144.065 47.9771 144.181 47.5641 144.415 47.187C144.648 46.8009 144.958 46.4957 145.344 46.2712C145.739 46.0467 146.17 45.9345 146.637 45.9345C147.086 45.9345 147.499 46.0422 147.876 46.2577C148.262 46.4642 148.572 46.7515 148.805 47.1197C149.039 47.4878 149.155 47.9143 149.155 48.3991C149.155 48.7403 149.097 48.9872 148.98 49.1399C148.864 49.2925 148.715 49.3868 148.536 49.4227C148.365 49.4496 148.181 49.4631 147.984 49.4631H144.94V49.9614C144.94 50.5001 145.133 50.9266 145.519 51.2409C145.905 51.5551 146.395 51.7122 146.987 51.7122C147.346 51.7122 147.625 51.6673 147.822 51.5776C148.02 51.4878 148.172 51.398 148.28 51.3082C148.397 51.2184 148.504 51.1735 148.603 51.1735C148.675 51.1735 148.738 51.2005 148.792 51.2543C148.855 51.2992 148.9 51.3531 148.926 51.4159C148.962 51.4788 148.98 51.5372 148.98 51.591C148.98 51.6898 148.9 51.811 148.738 51.9547C148.576 52.0983 148.343 52.224 148.038 52.3318C147.732 52.4305 147.373 52.4799 146.96 52.4799ZM144.94 48.8166H147.634C147.903 48.8166 148.082 48.7897 148.172 48.7358C148.262 48.673 148.307 48.5473 148.307 48.3587C148.307 48.0714 148.235 47.802 148.091 47.5506C147.948 47.2903 147.75 47.0793 147.499 46.9177C147.247 46.7471 146.956 46.6618 146.623 46.6618C146.318 46.6618 146.035 46.7381 145.775 46.8907C145.524 47.0434 145.322 47.2409 145.169 47.4833C145.016 47.7257 144.94 47.9996 144.94 48.3048V48.8166ZM155.044 52.4934C154.954 52.4934 154.878 52.4754 154.815 52.4395C154.761 52.4036 154.711 52.3318 154.667 52.224L152.579 46.5944C152.561 46.5585 152.548 46.5226 152.539 46.4867C152.53 46.4418 152.525 46.4104 152.525 46.3924C152.525 46.3116 152.552 46.2443 152.606 46.1904C152.66 46.1275 152.727 46.0781 152.808 46.0422C152.889 46.0063 152.97 45.9884 153.05 45.9884C153.113 45.9884 153.176 46.0063 153.239 46.0422C153.302 46.0781 153.342 46.1275 153.36 46.1904L155.084 50.985L156.458 46.6079C156.485 46.5271 156.53 46.4687 156.592 46.4328C156.655 46.3969 156.732 46.3789 156.821 46.3789C156.902 46.3789 156.974 46.3969 157.037 46.4328C157.1 46.4687 157.145 46.5271 157.172 46.6079L158.505 51.0388L160.256 46.1904C160.301 46.0557 160.404 45.9884 160.566 45.9884C160.637 45.9884 160.714 46.0063 160.794 46.0422C160.884 46.0781 160.956 46.123 161.01 46.1769C161.064 46.2308 161.091 46.2981 161.091 46.3789C161.091 46.4148 161.082 46.4553 161.064 46.5001C161.055 46.5361 161.046 46.5675 161.037 46.5944L158.936 52.2779C158.909 52.3587 158.86 52.4126 158.788 52.4395C158.725 52.4754 158.658 52.4934 158.586 52.4934C158.496 52.4934 158.42 52.4754 158.357 52.4395C158.294 52.4036 158.249 52.3542 158.222 52.2914L156.821 47.9143L155.434 52.224C155.407 52.3138 155.358 52.3811 155.286 52.426C155.214 52.4709 155.133 52.4934 155.044 52.4934ZM162.572 44.1298C162.411 44.1298 162.267 44.0759 162.141 43.9682C162.025 43.8515 161.966 43.7168 161.966 43.5641C161.966 43.4115 162.025 43.2813 162.141 43.1736C162.267 43.0658 162.411 43.0119 162.572 43.0119C162.734 43.0119 162.873 43.0658 162.99 43.1736C163.107 43.2813 163.165 43.4115 163.165 43.5641C163.165 43.7168 163.107 43.8515 162.99 43.9682C162.873 44.0759 162.734 44.1298 162.572 44.1298ZM162.559 52.3856C162.442 52.3856 162.339 52.3497 162.249 52.2779C162.168 52.2061 162.128 52.1253 162.128 52.0355V46.352C162.128 46.2443 162.168 46.1634 162.249 46.1096C162.339 46.0467 162.442 46.0153 162.559 46.0153C162.685 46.0153 162.788 46.0467 162.869 46.1096C162.959 46.1634 163.003 46.2443 163.003 46.352V52.0355C163.003 52.1253 162.959 52.2061 162.869 52.2779C162.788 52.3497 162.685 52.3856 162.559 52.3856ZM166.794 52.3856C166.103 52.3856 165.573 52.2285 165.205 51.9143C164.837 51.6 164.653 51.0972 164.653 50.4058V43.3217C164.653 43.214 164.698 43.1332 164.787 43.0793C164.886 43.0164 164.985 42.985 165.084 42.985C165.2 42.985 165.304 43.0164 165.393 43.0793C165.483 43.1332 165.528 43.214 165.528 43.3217V46.0153H167.279C167.369 46.0153 167.44 46.0512 167.494 46.123C167.548 46.1949 167.575 46.2802 167.575 46.3789C167.575 46.4777 167.548 46.563 167.494 46.6348C167.44 46.7067 167.369 46.7426 167.279 46.7426H165.528V50.4058C165.528 50.8458 165.622 51.1556 165.811 51.3351C165.999 51.5057 166.327 51.591 166.794 51.591H167.171C167.297 51.591 167.391 51.6314 167.454 51.7122C167.526 51.7841 167.562 51.8739 167.562 51.9816C167.562 52.0893 167.526 52.1836 167.454 52.2644C167.391 52.3452 167.297 52.3856 167.171 52.3856H166.794ZM169.096 52.3856C168.979 52.3856 168.876 52.3497 168.786 52.2779C168.705 52.2061 168.665 52.1253 168.665 52.0355V42.4463C168.665 42.3386 168.705 42.2577 168.786 42.2039C168.876 42.141 168.979 42.1096 169.096 42.1096C169.222 42.1096 169.325 42.141 169.406 42.2039C169.496 42.2577 169.54 42.3386 169.54 42.4463V46.9581C169.693 46.6977 169.918 46.4642 170.214 46.2577C170.51 46.0422 170.878 45.9345 171.318 45.9345C171.749 45.9345 172.144 46.0512 172.503 46.2847C172.871 46.5091 173.163 46.8144 173.379 47.2005C173.594 47.5776 173.702 47.9996 173.702 48.4665V52.0355C173.702 52.1522 173.657 52.242 173.567 52.3048C173.478 52.3587 173.374 52.3856 173.258 52.3856C173.159 52.3856 173.06 52.3587 172.961 52.3048C172.871 52.242 172.827 52.1522 172.827 52.0355V48.4665C172.827 48.1702 172.75 47.8918 172.598 47.6315C172.445 47.3711 172.243 47.1601 171.992 46.9985C171.74 46.8279 171.462 46.7426 171.157 46.7426C170.887 46.7426 170.627 46.8144 170.375 46.9581C170.133 47.0927 169.931 47.2858 169.769 47.5372C169.617 47.7886 169.54 48.0983 169.54 48.4665V52.0355C169.54 52.1253 169.496 52.2061 169.406 52.2779C169.325 52.3497 169.222 52.3856 169.096 52.3856ZM180.332 52.4799C179.875 52.4799 179.453 52.3632 179.066 52.1297C178.68 51.8873 178.366 51.5731 178.124 51.187C177.89 50.7919 177.774 50.3699 177.774 49.921V48.4665C177.774 48.0086 177.886 47.591 178.11 47.2139C178.344 46.8279 178.653 46.5181 179.04 46.2847C179.435 46.0512 179.866 45.9345 180.332 45.9345C180.79 45.9345 181.212 46.0512 181.598 46.2847C181.994 46.5091 182.308 46.8099 182.541 47.187C182.775 47.5641 182.891 47.9906 182.891 48.4665V49.921C182.891 50.361 182.775 50.7785 182.541 51.1735C182.308 51.5686 181.994 51.8873 181.598 52.1297C181.212 52.3632 180.79 52.4799 180.332 52.4799ZM180.332 51.6718C180.647 51.6718 180.93 51.591 181.181 51.4294C181.432 51.2588 181.634 51.0388 181.787 50.7695C181.94 50.5001 182.016 50.2173 182.016 49.921V48.4665C182.016 48.1702 181.94 47.8918 181.787 47.6315C181.643 47.3711 181.441 47.1601 181.181 46.9985C180.93 46.8279 180.647 46.7426 180.332 46.7426C180.018 46.7426 179.735 46.8279 179.484 46.9985C179.233 47.1601 179.031 47.3711 178.878 47.6315C178.725 47.8918 178.649 48.1702 178.649 48.4665V49.921C178.649 50.2173 178.725 50.5001 178.878 50.7695C179.031 51.0388 179.233 51.2588 179.484 51.4294C179.744 51.591 180.027 51.6718 180.332 51.6718ZM184.76 52.3856C184.643 52.3856 184.54 52.3497 184.45 52.2779C184.369 52.2061 184.329 52.1253 184.329 52.0355V46.352C184.329 46.2443 184.369 46.1634 184.45 46.1096C184.54 46.0467 184.643 46.0153 184.76 46.0153C184.877 46.0153 184.976 46.0467 185.056 46.1096C185.137 46.1634 185.178 46.2443 185.178 46.352V46.9581C185.321 46.6977 185.546 46.4642 185.851 46.2577C186.156 46.0422 186.533 45.9345 186.982 45.9345C187.413 45.9345 187.808 46.0512 188.167 46.2847C188.536 46.5091 188.827 46.8144 189.043 47.2005C189.258 47.5776 189.366 47.9996 189.366 48.4665V52.0355C189.366 52.1522 189.321 52.242 189.231 52.3048C189.142 52.3587 189.038 52.3856 188.922 52.3856C188.823 52.3856 188.724 52.3587 188.625 52.3048C188.536 52.242 188.491 52.1522 188.491 52.0355V48.4665C188.491 48.1702 188.414 47.8918 188.262 47.6315C188.109 47.3711 187.907 47.1601 187.656 46.9985C187.404 46.8279 187.126 46.7426 186.821 46.7426C186.551 46.7426 186.291 46.8144 186.039 46.9581C185.797 47.0927 185.595 47.2858 185.433 47.5372C185.281 47.7886 185.204 48.0983 185.204 48.4665V52.0355C185.204 52.1253 185.16 52.2061 185.07 52.2779C184.989 52.3497 184.886 52.3856 184.76 52.3856ZM193.651 52.4799C193.085 52.4799 192.582 52.3722 192.142 52.1567C191.711 51.9412 191.37 51.6449 191.119 51.2678C190.876 50.8817 190.755 50.4328 190.755 49.921V48.4261C190.755 47.9771 190.872 47.5641 191.105 47.187C191.339 46.8009 191.649 46.4957 192.035 46.2712C192.43 46.0467 192.861 45.9345 193.328 45.9345C193.776 45.9345 194.189 46.0422 194.567 46.2577C194.953 46.4642 195.262 46.7515 195.496 47.1197C195.729 47.4878 195.846 47.9143 195.846 48.3991C195.846 48.7403 195.788 48.9872 195.671 49.1399C195.554 49.2925 195.406 49.3868 195.227 49.4227C195.056 49.4496 194.872 49.4631 194.674 49.4631H191.631V49.9614C191.631 50.5001 191.824 50.9266 192.21 51.2409C192.596 51.5551 193.085 51.7122 193.678 51.7122C194.037 51.7122 194.315 51.6673 194.513 51.5776C194.71 51.4878 194.863 51.398 194.971 51.3082C195.087 51.2184 195.195 51.1735 195.294 51.1735C195.366 51.1735 195.429 51.2005 195.482 51.2543C195.545 51.2992 195.59 51.3531 195.617 51.4159C195.653 51.4788 195.671 51.5372 195.671 51.591C195.671 51.6898 195.59 51.811 195.429 51.9547C195.267 52.0983 195.033 52.224 194.728 52.3318C194.423 52.4305 194.064 52.4799 193.651 52.4799ZM191.631 48.8166H194.324C194.594 48.8166 194.773 48.7897 194.863 48.7358C194.953 48.673 194.998 48.5473 194.998 48.3587C194.998 48.0714 194.926 47.802 194.782 47.5506C194.638 47.2903 194.441 47.0793 194.189 46.9177C193.938 46.7471 193.646 46.6618 193.314 46.6618C193.009 46.6618 192.726 46.7381 192.466 46.8907C192.214 47.0434 192.012 47.2409 191.86 47.4833C191.707 47.7257 191.631 47.9996 191.631 48.3048V48.8166ZM202.246 52.4799C201.653 52.4799 201.164 52.3677 200.778 52.1432C200.392 51.9187 200.105 51.6135 199.916 51.2274C199.728 50.8413 199.633 50.4058 199.633 49.921V48.4934C199.633 48.0086 199.723 47.5731 199.903 47.187C200.091 46.8009 200.379 46.4957 200.765 46.2712C201.16 46.0467 201.653 45.9345 202.246 45.9345C202.623 45.9345 202.951 45.9839 203.229 46.0826C203.517 46.1724 203.737 46.2847 203.889 46.4193C204.051 46.554 204.132 46.6842 204.132 46.8099C204.132 46.8728 204.114 46.9401 204.078 47.0119C204.051 47.0748 204.006 47.1286 203.943 47.1735C203.889 47.2184 203.826 47.2409 203.754 47.2409C203.674 47.2409 203.579 47.2005 203.472 47.1197C203.373 47.0299 203.234 46.9446 203.054 46.8638C202.875 46.783 202.619 46.7426 202.286 46.7426C201.703 46.7426 201.258 46.8997 200.953 47.2139C200.657 47.5192 200.509 47.9457 200.509 48.4934V49.921C200.509 50.4687 200.657 50.8997 200.953 51.2139C201.258 51.5192 201.707 51.6718 202.3 51.6718C202.641 51.6718 202.906 51.6314 203.095 51.5506C203.283 51.4608 203.427 51.3755 203.526 51.2947C203.633 51.2049 203.732 51.1601 203.822 51.1601C203.903 51.1601 203.97 51.1825 204.024 51.2274C204.087 51.2723 204.132 51.3262 204.159 51.389C204.194 51.4519 204.212 51.5192 204.212 51.591C204.212 51.7077 204.132 51.8379 203.97 51.9816C203.808 52.1163 203.579 52.233 203.283 52.3318C202.996 52.4305 202.65 52.4799 202.246 52.4799ZM205.951 52.3856C205.834 52.3856 205.731 52.3497 205.641 52.2779C205.561 52.2061 205.52 52.1253 205.52 52.0355V42.4463C205.52 42.3386 205.561 42.2577 205.641 42.2039C205.731 42.141 205.834 42.1096 205.951 42.1096C206.077 42.1096 206.18 42.141 206.261 42.2039C206.351 42.2577 206.396 42.3386 206.396 42.4463V52.0355C206.396 52.1253 206.351 52.2061 206.261 52.2779C206.18 52.3497 206.077 52.3856 205.951 52.3856ZM208.645 44.1298C208.483 44.1298 208.34 44.0759 208.214 43.9682C208.097 43.8515 208.039 43.7168 208.039 43.5641C208.039 43.4115 208.097 43.2813 208.214 43.1736C208.34 43.0658 208.483 43.0119 208.645 43.0119C208.807 43.0119 208.946 43.0658 209.062 43.1736C209.179 43.2813 209.237 43.4115 209.237 43.5641C209.237 43.7168 209.179 43.8515 209.062 43.9682C208.946 44.0759 208.807 44.1298 208.645 44.1298ZM208.631 52.3856C208.515 52.3856 208.411 52.3497 208.322 52.2779C208.241 52.2061 208.2 52.1253 208.2 52.0355V46.352C208.2 46.2443 208.241 46.1634 208.322 46.1096C208.411 46.0467 208.515 46.0153 208.631 46.0153C208.757 46.0153 208.86 46.0467 208.941 46.1096C209.031 46.1634 209.076 46.2443 209.076 46.352V52.0355C209.076 52.1253 209.031 52.2061 208.941 52.2779C208.86 52.3497 208.757 52.3856 208.631 52.3856ZM213.149 52.4799C212.557 52.4799 212.067 52.3677 211.681 52.1432C211.295 51.9187 211.008 51.6135 210.819 51.2274C210.631 50.8413 210.537 50.4058 210.537 49.921V48.4934C210.537 48.0086 210.626 47.5731 210.806 47.187C210.994 46.8009 211.282 46.4957 211.668 46.2712C212.063 46.0467 212.557 45.9345 213.149 45.9345C213.526 45.9345 213.854 45.9839 214.132 46.0826C214.42 46.1724 214.64 46.2847 214.792 46.4193C214.954 46.554 215.035 46.6842 215.035 46.8099C215.035 46.8728 215.017 46.9401 214.981 47.0119C214.954 47.0748 214.909 47.1286 214.846 47.1735C214.792 47.2184 214.73 47.2409 214.658 47.2409C214.577 47.2409 214.483 47.2005 214.375 47.1197C214.276 47.0299 214.137 46.9446 213.957 46.8638C213.778 46.783 213.522 46.7426 213.19 46.7426C212.606 46.7426 212.162 46.8997 211.856 47.2139C211.56 47.5192 211.412 47.9457 211.412 48.4934V49.921C211.412 50.4687 211.56 50.8997 211.856 51.2139C212.162 51.5192 212.611 51.6718 213.203 51.6718C213.544 51.6718 213.809 51.6314 213.998 51.5506C214.186 51.4608 214.33 51.3755 214.429 51.2947C214.536 51.2049 214.635 51.1601 214.725 51.1601C214.806 51.1601 214.873 51.1825 214.927 51.2274C214.99 51.2723 215.035 51.3262 215.062 51.389C215.098 51.4519 215.116 51.5192 215.116 51.591C215.116 51.7077 215.035 51.8379 214.873 51.9816C214.712 52.1163 214.483 52.233 214.186 52.3318C213.899 52.4305 213.553 52.4799 213.149 52.4799ZM216.747 52.3856C216.63 52.3856 216.527 52.3497 216.437 52.2779C216.356 52.2061 216.316 52.1253 216.316 52.0355V42.4463C216.316 42.3386 216.356 42.2577 216.437 42.2039C216.527 42.141 216.63 42.1096 216.747 42.1096C216.872 42.1096 216.976 42.141 217.056 42.2039C217.146 42.2577 217.191 42.3386 217.191 42.4463V48.9917L220.477 46.0692C220.549 46.0153 220.616 45.9884 220.679 45.9884C220.751 45.9884 220.819 46.0108 220.881 46.0557C220.953 46.0916 221.012 46.141 221.056 46.2039C221.101 46.2577 221.124 46.3251 221.124 46.4059C221.124 46.4508 221.115 46.4957 221.097 46.5405C221.088 46.5765 221.065 46.6124 221.03 46.6483L219.05 48.3991L221.38 51.793C221.416 51.8469 221.434 51.9098 221.434 51.9816C221.434 52.0444 221.411 52.1118 221.366 52.1836C221.321 52.2554 221.258 52.3138 221.178 52.3587C221.106 52.4036 221.034 52.426 220.962 52.426C220.854 52.426 220.765 52.3722 220.693 52.2644L218.43 48.9513L217.191 50.0287V52.0355C217.191 52.1253 217.146 52.2061 217.056 52.2779C216.976 52.3497 216.872 52.3856 216.747 52.3856Z" fill="#F7F7F7" style="fill:#F7F7F7;fill:color(display-p3 0.9686 0.9686 0.9686);fill-opacity:1;"/>
<path d="M24.1366 63.1906C10.2556 59.543 0 47.0266 0 32.1913C0 32.0344 1.06104e-06 31.8824 0.00496744 31.7256C0.124161 28.1515 1.84749 25.0237 4.48464 23.0087C6.45133 21.4987 8.92955 20.6064 11.6263 20.6064H20.7644V9.50689C20.7644 8.69796 21.4299 8.0361 22.2544 8.0361C23.0788 8.0361 23.7443 8.69796 23.7443 9.50689V23.548H11.6263C6.9281 23.548 3.12882 27.1808 2.9848 31.8187C2.97983 31.9413 2.97983 32.0687 2.97983 32.1913C2.97983 36.2066 3.80922 40.0355 5.3041 43.5262C5.40839 43.7664 5.51268 44.0017 5.62194 44.2419C8.60177 50.6938 13.9059 55.9004 20.4665 58.7978C20.8439 59.5332 21.2958 60.2343 21.8173 60.8961C22.5027 61.7639 23.2774 62.5336 24.1366 63.1906Z" fill="#F7F7F7" style="fill:#F7F7F7;fill:color(display-p3 0.9686 0.9686 0.9686);fill-opacity:1;"/>
<path d="M63.907 40.4375C60.217 54.1452 47.5329 64.274 32.4996 64.274H32.3655C32.2513 64.274 32.1421 64.274 32.0278 64.2691C28.4073 64.1563 25.2388 62.4551 23.1926 59.8469C21.663 57.9055 20.7641 55.4591 20.7641 52.797V43.7762H9.52019C9.02355 43.7762 8.57658 43.531 8.30839 43.1584C8.219 43.0309 8.14947 42.8937 8.0998 42.7417C8.05511 42.6044 8.03027 42.4573 8.03027 42.3054C8.03027 41.4915 8.70073 40.8346 9.52019 40.8346H23.7439V52.797C23.7439 57.4397 27.424 61.1853 32.1222 61.3275C32.1917 61.3324 32.2662 61.3324 32.3407 61.3324H32.4996C44.4984 61.3324 54.8434 54.2334 59.4572 44.0654C60.2021 43.6977 60.9073 43.2516 61.5778 42.7368C62.4618 42.0602 63.2415 41.2905 63.907 40.4375Z" fill="#F7F7F7" style="fill:#F7F7F7;fill:color(display-p3 0.9686 0.9686 0.9686);fill-opacity:1;"/>
<path d="M38.4697 49.4093H31.194C28.7207 49.4093 26.7093 47.4237 26.7093 44.9822V38.3833H15.5449V31.1961C15.5449 28.7546 17.5563 26.769 20.0296 26.769H26.7143V15.7479H33.9901C36.4633 15.7479 38.4747 17.7335 38.4747 20.175V26.7739H49.6391V33.9562C49.6391 36.3977 47.6277 38.3833 45.1545 38.3833H38.4697V49.4093ZM18.5198 35.4417H29.6842V44.9822C29.6842 45.801 30.3596 46.4677 31.189 46.4677H35.4849V35.4417H45.1495C45.9789 35.4417 46.6543 34.775 46.6543 33.9562V29.7155H35.4899V20.175C35.4899 19.3563 34.8145 18.6895 33.9851 18.6895H29.6892V29.7106H20.0246C19.1952 29.7106 18.5198 30.3773 18.5198 31.1961V35.4417Z" fill="#F7F7F7" style="fill:#F7F7F7;fill:color(display-p3 0.9686 0.9686 0.9686);fill-opacity:1;"/>
<path d="M64.9998 32.1913V32.3237C64.9998 32.4316 64.9998 32.5443 64.9948 32.6522C64.8806 36.2311 63.1573 39.359 60.5152 41.3788C58.5485 42.8888 56.0703 43.7762 53.3735 43.7762H44.2354V54.8708C44.2354 55.6847 43.5699 56.3416 42.7455 56.3416C41.921 56.3416 41.2555 55.6847 41.2555 54.8708V40.8346H53.3735C58.0767 40.8346 61.871 37.2018 62.015 32.5639C62.02 32.4953 62.02 32.4217 62.02 32.3482V32.1913C62.02 28.1761 61.1906 24.3422 59.6957 20.8565C56.7805 14.0713 51.3373 8.59012 44.5334 5.58482C44.1559 4.84943 43.704 4.14835 43.1825 3.4865C42.5021 2.61874 41.7273 1.84903 40.8682 1.19208C54.7492 4.83962 64.9998 17.356 64.9998 32.1913Z" fill="#F7F7F7" style="fill:#F7F7F7;fill:color(display-p3 0.9686 0.9686 0.9686);fill-opacity:1;"/>
<path d="M56.9645 22.0772C56.9645 22.8861 56.299 23.548 55.4746 23.548H41.2558V11.5856C41.2558 6.94773 37.5757 3.19722 32.8775 3.05504C32.7534 3.05014 32.6242 3.05015 32.5001 3.05015C20.5063 3.05015 10.1563 10.1491 5.54257 20.3172C4.79761 20.6898 4.08742 21.1359 3.42192 21.6507C2.54287 22.3223 1.76315 23.097 1.09766 23.9451C4.78768 10.2374 17.4718 0.108582 32.5001 0.108582C32.659 0.108582 32.8179 0.108571 32.9769 0.113474C36.5974 0.226234 39.7659 1.92745 41.8071 4.53564C43.3367 6.47708 44.2356 8.92349 44.2356 11.5856V20.6064H55.4746C56.0407 20.6064 56.5324 20.9153 56.7857 21.3761C56.8999 21.582 56.9645 21.8223 56.9645 22.0772Z" fill="#F7F7F7" style="fill:#F7F7F7;fill:color(display-p3 0.9686 0.9686 0.9686);fill-opacity:1;"/>
</svg>
